<?xml version="1.0" encoding="UTF-8"?>
<svg version="1.1" xmlns="http://www.w3.org/2000/svg" width="460" height="460">
<path d="M0 0 C1.98 0.99 1.98 0.99 4 2 C3.54625 2.70125 3.0925 3.4025 2.625 4.125 C0.33280696 8.18041845 -1 11.55812633 -1 16.25 C-1 17.1575 -1 18.065 -1 19 C-3.46278801 21.46278801 -5.70676982 21.99771255 -9 23 C-9.185625 24.2065625 -9.185625 24.2065625 -9.375 25.4375 C-9.58125 26.283125 -9.7875 27.12875 -10 28 C-10.66 28.33 -11.32 28.66 -12 29 C-12 35.27 -12 41.54 -12 48 C-11.34 48 -10.68 48 -10 48 C-9.56300781 49.23363281 -9.56300781 49.23363281 -9.1171875 50.4921875 C-5.22874224 62.84101048 -5.22874224 62.84101048 3 72 C3 72.99 3 73.98 3 75 C3.87785156 75.42732422 3.87785156 75.42732422 4.7734375 75.86328125 C7 77 7 77 8.7890625 78.10546875 C14.44445939 81.43854309 18.68479587 81.48791958 25 80 C30.06049412 78.4865812 35.02448697 76.77459965 40 75 C41.99841191 74.32858785 43.99786086 73.66021459 46 73 C45.85304688 73.56332031 45.70609375 74.12664062 45.5546875 74.70703125 C45.18468096 76.23656535 44.8563919 77.77678928 44.5703125 79.32421875 C44.42335938 80.10410156 44.27640625 80.88398437 44.125 81.6875 C43.91230469 82.86892578 43.91230469 82.86892578 43.6953125 84.07421875 C43.46585937 84.70972656 43.23640625 85.34523438 43 86 C39.6718905 87.10936983 36.73589794 87.2549221 33.25390625 87.42578125 C30.11838921 88.22460448 28.99779728 89.46641093 27 92 C25.51617853 95.23329113 25.51617853 95.23329113 24.375 98.8125 C23.97023438 99.99457031 23.56546875 101.17664063 23.1484375 102.39453125 C19.44496418 114.02142196 16.74406399 126.71216288 21.375 138.5 C24.16474897 142.7919215 26.235889 144.16764962 31 146 C31.66 146.66 32.32 147.32 33 148 C34.91409449 148.72603584 36.82991114 149.44818255 38.7578125 150.13671875 C42.30785971 151.50354877 45.6237185 153.25156851 49 155 C49 155.66 49 156.32 49 157 C50.32 157 51.64 157 53 157 C53.66 158.65 54.32 160.3 55 162 C53.77023437 161.98259766 53.77023437 161.98259766 52.515625 161.96484375 C51.43796875 161.95582031 50.3603125 161.94679687 49.25 161.9375 C48.18265625 161.92589844 47.1153125 161.91429687 46.015625 161.90234375 C43.09883173 161.89063453 43.09883173 161.89063453 40.734375 162.56640625 C39 163 39 163 37 162 C36.67 161.01 36.34 160.02 36 159 C32.78407546 158.42278277 30.67864039 158.58006782 27.87890625 160.3125 C25.52188455 162.14256191 23.25304717 164.04350776 21 166 C20.33871094 166.55171875 19.67742187 167.1034375 18.99609375 167.671875 C11.37348179 174.13954576 4.26819525 181.21224227 -2 189 C-2.9933557 190.00660044 -3.99361858 191.00642241 -5 192 C-9.15066292 196.44713884 -12.56126547 201.16594094 -15.875 206.25 C-16.28057129 206.86464111 -16.68614258 207.47928223 -17.10400391 208.11254883 C-19.46213742 211.75651415 -19.46213742 211.75651415 -20 216 C-20.66 216.33 -21.32 216.66 -22 217 C-24.15389893 220.28793053 -24.29796252 223.12333882 -24.3125 227 C-24.33763672 228.546875 -24.33763672 228.546875 -24.36328125 230.125 C-23.95687658 233.34127783 -23.05544887 234.57034013 -21 237 C-21 237.66 -21 238.32 -21 239 C-20.01 239.33 -19.02 239.66 -18 240 C-14 244.34285714 -14 244.34285714 -14 248 C-15.60332791 248.08121924 -17.20784026 248.13929134 -18.8125 248.1875 C-19.70582031 248.22230469 -20.59914063 248.25710938 -21.51953125 248.29296875 C-24 248 -24 248 -25.48828125 246.5078125 C-26.94862013 244.75064023 -26.94862013 244.75064023 -29.5234375 244.63671875 C-30.46445313 244.65347656 -31.40546875 244.67023438 -32.375 244.6875 C-33.31085938 244.69136719 -34.24671875 244.69523438 -35.2109375 244.69921875 C-38.12547646 245.01353177 -40.34408799 245.78793834 -43 247 C-43.19380077 252.52332205 -42.64060963 256.66801869 -41 262 C-41 263.32 -41 264.64 -41 266 C-40.236875 266 -39.47375 266 -38.6875 266 C-36 267 -36 267 -35 268.70703125 C-33.57620496 272.39657704 -33 274.9735472 -33 279 C-39.22713368 278.42073175 -42.09700304 276.00586166 -46.3125 271.5625 C-50.20390968 267.85208612 -54.26797621 264.31045725 -59.75 263.6875 C-63.467135 265.85582875 -64.65846021 269.01483767 -66 273 C-67.95049932 280.57693966 -66.68129019 287.11550925 -63 294 C-58.85781511 296.76145659 -55.66401231 296.02110846 -50.8125 295.77734375 C-48 296 -48 296 -46.1875 297.31640625 C-45 299 -45 299 -44 302 C-43.01 301.34 -42.02 300.68 -41 300 C-37.8125 299.875 -37.8125 299.875 -35 300 C-35.66666667 302.66666667 -36.33333333 305.33333333 -37 308 C-36.34 308 -35.68 308 -35 308 C-34.34 307.01 -33.68 306.02 -33 305 C-31 304.25 -31 304.25 -29 304 C-28.34 304.33 -27.68 304.66 -27 305 C-27 307.31 -27 309.62 -27 312 C-26.01 312 -25.02 312 -24 312 C-24 311.34 -24 310.68 -24 310 C-21.69 309.67 -19.38 309.34 -17 309 C-15 314.75 -15 314.75 -15 317 C-14.443125 316.67 -13.88625 316.34 -13.3125 316 C-10.69715478 314.8690399 -8.8193354 314.84337026 -6 315 C-5.67 316.98 -5.34 318.96 -5 321 C-2.69 320.67 -0.38 320.34 2 320 C2.33 321.65 2.66 323.3 3 325 C4.093125 325.12375 5.18625 325.2475 6.3125 325.375 C10 326 10 326 13 328 C13.33 328.99 13.66 329.98 14 331 C17.51190809 332.22969878 17.51190809 332.22969878 21 333 C21.33 334.32 21.66 335.64 22 337 C23.175625 336.938125 23.175625 336.938125 24.375 336.875 C27 337 27 337 29 339 C29.125 341.625 29.125 341.625 29 344 C29.86625 343.855625 30.7325 343.71125 31.625 343.5625 C36.00942839 344.13085183 37.17414462 345.72517403 39.80859375 349.109375 C41.23702366 351.37612934 41.83792703 353.32579595 42 356 C42.556875 356.04125 43.11375 356.0825 43.6875 356.125 C46.27440652 357.10382949 46.94022154 357.93777939 48.625 360.0625 C49.800625 361.5165625 49.800625 361.5165625 51 363 C51.66 363 52.32 363 53 363 C53.33 363.99 53.66 364.98 54 366 C55.78113514 367.47192832 55.78113514 367.47192832 58 368.8125 C62.80952381 371.85602679 62.80952381 371.85602679 65 373.51171875 C76.75576892 382.25966398 96.42210751 388.62578727 111 387 C112.68577711 386.38325228 114.35448038 385.71727778 116 385 C117.47662742 384.84791291 118.95649187 384.725866 120.4375 384.625 C126.03033837 384.09632374 129.37314298 381.62685702 133.3125 377.6875 C136.84739702 375.4679135 138.78792372 376.09639263 142.7734375 376.76953125 C145.86426326 377.08945883 148.1882166 376.22564917 151 375 C151 374.67 151 374.34 151 374 C153.31 374.33 155.62 374.66 158 375 C158 375.99 158 376.98 158 378 C155.11165997 380.10770759 153.61537605 381 150 381 C150 381.66 150 382.32 150 383 C149.43410156 383.26554687 148.86820312 383.53109375 148.28515625 383.8046875 C147.55167969 384.15789062 146.81820313 384.51109375 146.0625 384.875 C145.33160156 385.22304688 144.60070312 385.57109375 143.84765625 385.9296875 C141.83667541 386.8684977 141.83667541 386.8684977 141 389 C140.21625 389.144375 139.4325 389.28875 138.625 389.4375 C135.95693138 389.74486498 135.95693138 389.74486498 134.5625 391.5625 C133 393 133 393 129.9375 393.125 C128.968125 393.08375 127.99875 393.0425 127 393 C126.34 393.33 125.68 393.66 125 394 C120.88038097 394.24694472 116.75116825 394.18522538 112.625 394.1875 C111.49449219 394.19974609 110.36398437 394.21199219 109.19921875 394.22460938 C98.79167512 394.24249175 89.02917297 392.70016195 79 390 C79 389.34 79 388.68 79 388 C78.1234375 387.87625 77.246875 387.7525 76.34375 387.625 C66.42323696 385.7706985 58.16417128 380.43443929 49.93359375 374.890625 C47.10881118 372.89843075 47.10881118 372.89843075 44 372 C44 371.34 44 370.68 44 370 C43.2575 369.71125 42.515 369.4225 41.75 369.125 C39.43260203 368.17697356 37.22082885 367.15154089 35 366 C35 365.34 35 364.68 35 364 C34.34 364 33.68 364 33 364 C32.67 363.34 32.34 362.68 32 362 C29.98330173 360.86649466 29.98330173 360.86649466 28 360 C28 359.34 28 358.68 28 358 C27.48953125 357.77570313 26.9790625 357.55140625 26.453125 357.3203125 C23.00401837 355.46394619 19.91657227 353.17269574 16.75 350.875 C16.1003125 350.40707031 15.450625 349.93914062 14.78125 349.45703125 C13.18564517 348.30725718 11.59256975 347.15397434 10 346 C9.34 346.33 8.68 346.66 8 347 C6.53515625 345.69791667 5.0703125 344.39583333 3.60546875 343.09375 C1.910552 341.71848759 1.910552 341.71848759 -1 342 C-1 341.34 -1 340.68 -1 340 C-5.39951767 339.14155753 -9.52154812 338.91550091 -14 339 C-14.99 339 -15.98 339 -17 339 C-15.55367188 339.38478516 -15.55367188 339.38478516 -14.078125 339.77734375 C-4.05994071 342.70827272 -4.05994071 342.70827272 -1.28515625 346.08984375 C-0.31228114 348.37551419 0.38059146 350.59620262 1 353 C2.53558209 357.78963594 2.53558209 357.78963594 6 361 C7.05589069 362.63183107 8.0436126 364.30792999 9 366 C9.34546875 366.5878125 9.6909375 367.175625 10.046875 367.78125 C13.22802308 373.22147425 14.11865634 376.71121414 14 383 C14.66 383.33 15.32 383.66 16 384 C15.67 384.33 15.34 384.66 15 385 C16.485 389.455 16.485 389.455 18 394 C19.32 393.67 20.64 393.34 22 393 C23.32 393 24.64 393 26 393 C26.99 392.67 27.98 392.34 29 392 C29.05447047 393.41623216 29.09300508 394.83308191 29.125 396.25 C29.15980469 397.43335938 29.15980469 397.43335938 29.1953125 398.640625 C28.9828378 401.20731941 28.28654105 402.7916067 27 405 C28.65 404.67 30.3 404.34 32 404 C32.33 403.01 32.66 402.02 33 401 C34.32 401 35.64 401 37 401 C37.125 406.75 37.125 406.75 36 409 C38.31 408.67 40.62 408.34 43 408 C43.6875 409.8125 43.6875 409.8125 44 412 C42.75 413.5625 42.75 413.5625 41 415 C40.443125 415.556875 39.88625 416.11375 39.3125 416.6875 C38.879375 417.120625 38.44625 417.55375 38 418 C39.65 418 41.3 418 43 418 C42 420.5 42 420.5 40 423 C37.27238255 423.58530124 34.73468533 423.52378046 32 423 C31.01 422.34 30.02 421.68 29 421 C26.85565228 420.58136304 26.85565228 420.58136304 24.5625 420.4375 C21.6013796 420.19199256 18.86726916 419.79029514 16 419 C16 418.01 16 417.02 16 416 C15.401875 415.773125 14.80375 415.54625 14.1875 415.3125 C12 414 12 414 10.4375 411.375 C9.963125 410.59125 9.48875 409.8075 9 409 C8.01 409 7.02 409 6 409 C4 407 4 407 3.0625 404.5625 C2.20103868 402.01118946 2.20103868 402.01118946 0.55078125 400.58203125 C-1.1485394 398.84846736 -1.90243348 397.33694333 -2.875 395.125 C-5.25547756 390.16339159 -8.42690969 387.04872687 -13 384 C-14.03289086 382.88372472 -15.03160499 381.73516583 -16 380.5625 C-17.5076142 378.74472559 -18.97145651 377.02702381 -20.6875 375.40234375 C-22 374 -22 374 -22 372 C-22.87785156 371.80277344 -22.87785156 371.80277344 -23.7734375 371.6015625 C-26 371 -26 371 -29.625 369.375 C-33.88243184 367.70870177 -37.26163795 368.08605384 -41.703125 368.87109375 C-44.4182118 369.02347107 -45.64498061 368.26619243 -48 367 C-49.66965451 367.31802943 -51.33678518 367.64984951 -53 368 C-53.66 367.34 -54.32 366.68 -55 366 C-55.33 366.66 -55.66 367.32 -56 368 C-57.65 367.67 -59.3 367.34 -61 367 C-61 366.34 -61 365.68 -61 365 C-61.66 365 -62.32 365 -63 365 C-63.33 365.66 -63.66 366.32 -64 367 C-63.34 367 -62.68 367 -62 367 C-61.67 367.99 -61.34 368.98 -61 370 C-61.99 370.66 -62.98 371.32 -64 372 C-72.79142803 365.40642898 -77.58262501 356.25212498 -81 346 C-88.692641 345.15199233 -96.26291674 344.87847513 -104 345 C-104 344.34 -104 343.68 -104 343 C-105.32 343.33 -106.64 343.66 -108 344 C-108.33 343.34 -108.66 342.68 -109 342 C-110.98 342 -112.96 342 -115 342 C-115 341.34 -115 340.68 -115 340 C-116.175625 339.690625 -117.35125 339.38125 -118.5625 339.0625 C-123.43345988 337.45445876 -127.67692418 335.05059171 -132.0625 332.4375 C-132.7419165 332.03732666 -133.42133301 331.63715332 -134.12133789 331.22485352 C-135.78598956 330.21043318 -137.39874884 329.11180417 -139 328 C-139 327.34 -139 326.68 -139 326 C-140.32 325.34 -141.64 324.68 -143 324 C-143 323.34 -143 322.68 -143 322 C-143.99 321.67 -144.98 321.34 -146 321 C-149 316.66666667 -149 316.66666667 -149 314 C-149.66 314 -150.32 314 -151 314 C-152.15416506 311.94178919 -153.29835847 309.87900528 -154.4375 307.8125 C-155.07558594 306.66394531 -155.71367187 305.51539063 -156.37109375 304.33203125 C-158.90701726 299.14463855 -159.13754907 294.85992465 -159.125 289.125 C-159.12757813 287.95195312 -159.13015625 286.77890625 -159.1328125 285.5703125 C-159 282 -159 282 -158.50390625 278.75390625 C-157.83370289 273.76115097 -157.80922415 268.84461607 -157.8125 263.8125 C-157.8115332 262.28580688 -157.8115332 262.28580688 -157.81054688 260.72827148 C-157.86045896 253.62771089 -158.33183421 246.9258669 -160 240 C-160.66 240 -161.32 240 -162 240 C-164.04169485 237.09451118 -165 235.59857954 -165 232 C-165.66 232 -166.32 232 -167 232 C-168.051875 230.6696875 -168.051875 230.6696875 -169.125 229.3125 C-172.74074422 224.87451657 -176.8105103 221.41643189 -182.6328125 220.65625 C-186.39548928 220.61237039 -189.41514445 220.80504815 -193 222 C-193 222.66 -193 223.32 -193 224 C-193.99 224.33 -194.98 224.66 -196 225 C-197.36359338 229.09078014 -197.68936133 233.63193091 -196.47094727 237.81738281 C-195.92434392 240.35063003 -196.07527689 242.380517 -196.33203125 244.95703125 C-196.40744141 245.90513672 -196.48285156 246.85324219 -196.56054688 247.83007812 C-196.72767991 249.80846689 -196.91499761 251.78526035 -197.12304688 253.75976562 C-197.58986829 259.21532726 -197.58986829 259.21532726 -195.67333984 264.18896484 C-194.06064837 266.07779801 -194.06064837 266.07779801 -192.3190918 267.66674805 C-191 269 -191 269 -191 271 C-192.65 271.33 -194.3 271.66 -196 272 C-196 272.99 -196 273.98 -196 275 C-202.0407508 275.4314822 -207.12474457 274.93910913 -212 271 C-212.72265625 268.859375 -212.72265625 268.859375 -213 267 C-215.64 267 -218.28 267 -221 267 C-221 266.34 -221 265.68 -221 265 C-223.3078491 263.84607545 -225.47230331 263.46562834 -228 263 C-228 264.32 -228 265.64 -228 267 C-229.65 266.67 -231.3 266.34 -233 266 C-233 265.34 -233 264.68 -233 264 C-235.64 263.67 -238.28 263.34 -241 263 C-241.33 261.68 -241.66 260.36 -242 259 C-242.66 259 -243.32 259 -244 259 C-245.28238342 251.59067358 -245.28238342 251.59067358 -244 248 C-243.67 247.01 -243.34 246.02 -243 245 C-242.071875 245.0825 -241.14375 245.165 -240.1875 245.25 C-236.9731622 245.35308174 -236.9731622 245.35308174 -235.34765625 243.28125 C-233.87544668 240.78916192 -233.55924655 239.10598287 -233.25 236.25 C-232.25819141 230.4872501 -229.43529584 226.74489602 -225 223 C-224.34 223 -223.68 223 -223 223 C-223 219.37 -223 215.74 -223 212 C-219.37673261 210.7922442 -218.35853631 211.45688872 -215 213 C-215.309375 212.401875 -215.61875 211.80375 -215.9375 211.1875 C-218.27877755 206.3672227 -217.61494069 204.03481509 -216 199 C-214.3125 198.1875 -214.3125 198.1875 -212 198 C-209.25 200.4375 -209.25 200.4375 -207 203 C-207.495 198.545 -207.495 198.545 -208 194 C-207.34 194 -206.68 194 -206 194 C-206 193.01 -206 192.02 -206 191 C-204.02 191 -202.04 191 -200 191 C-199.67 191.99 -199.34 192.98 -199 194 C-199.33 194.66 -199.66 195.32 -200 196 C-199.34 196 -198.68 196 -198 196 C-197.9071875 194.8553125 -197.9071875 194.8553125 -197.8125 193.6875 C-197 191 -197 191 -194.4375 189.1875 C-193.2309375 188.5996875 -193.2309375 188.5996875 -192 188 C-191.01 189.98 -191.01 189.98 -190 192 C-187.01909063 191.28596382 -187.01909063 191.28596382 -185.625 189.4375 C-184 188 -184 188 -181.3125 187.8125 C-180.549375 187.874375 -179.78625 187.93625 -179 188 C-178.67 188.99 -178.34 189.98 -178 191 C-177.443125 190.2265625 -177.443125 190.2265625 -176.875 189.4375 C-175 188 -175 188 -171.8125 188.3125 C-170.884375 188.539375 -169.95625 188.76625 -169 189 C-169 189.99 -169 190.98 -169 192 C-167.02 191.67 -165.04 191.34 -163 191 C-162.505 193.475 -162.505 193.475 -162 196 C-161.236875 195.9175 -160.47375 195.835 -159.6875 195.75 C-157 196 -157 196 -155.1875 197.875 C-154 200 -154 200 -154 202 C-152.72125 201.95875 -151.4425 201.9175 -150.125 201.875 C-147.9453125 201.8046875 -147.9453125 201.8046875 -146 202 C-145.34 202.66 -144.68 203.32 -144 204 C-144.66 204 -145.32 204 -146 204 C-146.495 206.97 -146.495 206.97 -147 210 C-143.02385643 211.80733799 -139.31396079 212.43023159 -135 213 C-134.34 213.33 -133.68 213.66 -133 214 C-133 214.66 -133 215.32 -133 216 C-133.66 216 -134.32 216 -135 216 C-135.020625 217.27875 -135.04125 218.5575 -135.0625 219.875 C-135.07410156 220.59429687 -135.08570313 221.31359375 -135.09765625 222.0546875 C-135.12649242 224.08185404 -135.12649242 224.08185404 -134 226 C-127.43856014 227.42102747 -121.35409621 227.11803207 -115 225 C-114.79279277 220.31282949 -115.4966403 216.4946219 -116.8125 212 C-117.14894531 210.824375 -117.48539062 209.64875 -117.83203125 208.4375 C-118.90964389 204.98293359 -118.90964389 204.98293359 -120.6171875 201.8828125 C-122.04769955 198.90055856 -122.29753779 197.13676096 -122.3125 193.875 C-122.74257182 187.04059786 -125.70566016 181.88087722 -129 176 C-129.29003906 175.24589844 -129.58007812 174.49179688 -129.87890625 173.71484375 C-130.24886719 173.14894531 -130.61882812 172.58304688 -131 172 C-132.65 171.67 -134.3 171.34 -136 171 C-135.67 167.04 -135.34 163.08 -135 159 C-130 160 -130 160 -127 161 C-127 161.66 -127 162.32 -127 163 C-124.45886142 163.22333047 -121.91827416 163.42902091 -119.375 163.625 C-118.66214844 163.68945312 -117.94929688 163.75390625 -117.21484375 163.8203125 C-112.63876323 164.15617162 -109.32800164 163.76420008 -105 162 C-104.01 161.67 -103.02 161.34 -102 161 C-101.16666667 159.08333333 -101.16666667 159.08333333 -101 157 C-101.33 156.34 -101.66 155.68 -102 155 C-99.525 154.01 -99.525 154.01 -97 153 C-95.46833832 157.08443115 -96.36918348 160.79455657 -97 165 C-96.34 165 -95.68 165 -95 165 C-94.67 165.99 -94.34 166.98 -94 168 C-90.6348705 171.07668983 -87.12176845 173.0828984 -83 175 C-82.02146831 170.45189496 -82.10493713 166.82818197 -82.875 162.25 C-83.05804688 161.12078125 -83.24109375 159.9915625 -83.4296875 158.828125 C-83.85863093 156.0647548 -83.85863093 156.0647548 -85 154 C-85.09395449 152.0958557 -85.18310073 150.19126366 -85.23974609 148.28564453 C-85.63477315 135.8424147 -85.63477315 135.8424147 -91.6328125 125.2421875 C-92.08398438 124.83226562 -92.53515625 124.42234375 -93 124 C-92.34 122.35 -91.68 120.7 -91 119 C-90.34 119 -89.68 119 -89 119 C-88.814375 118.443125 -88.62875 117.88625 -88.4375 117.3125 C-86.35889174 113.96865193 -83.39186398 111.95192172 -80 110 C-79.34 110 -78.68 110 -78 110 C-77.731875 109.42765625 -77.46375 108.8553125 -77.1875 108.265625 C-75.95867364 105.92115366 -74.57477824 103.87595062 -73 101.75 C-72.484375 101.04359375 -71.96875 100.3371875 -71.4375 99.609375 C-70.963125 99.07828125 -70.48875 98.5471875 -70 98 C-69.34 98 -68.68 98 -68 98 C-67.67 97.01 -67.34 96.02 -67 95 C-66.236875 94.2575 -65.47375 93.515 -64.6875 92.75 C-62.46643467 90.47728199 -61.35787979 89.02362174 -59.9375 86.3125 C-58 83 -58 83 -56.078125 82.0703125 C-53.39984573 80.69089799 -52.42416615 79.08564829 -50.8125 76.5625 C-50.30332031 75.78003906 -49.79414063 74.99757813 -49.26953125 74.19140625 C-47.86928132 71.94439088 -47.86928132 71.94439088 -47 69 C-42.68181818 64.22727273 -42.68181818 64.22727273 -39 63 C-38.25976679 61.02604477 -37.61238899 59.01728138 -37 57 C-35.72355598 53.97398986 -34.36696065 50.98607908 -33 48 C-32.34 48 -31.68 48 -31 48 C-30.9175 47.154375 -30.835 46.30875 -30.75 45.4375 C-29.87473188 41.42585444 -28.10741624 38.45168174 -26 35 C-25.13957184 33.4618192 -24.28559336 31.920016 -23.4375 30.375 C-21.68434117 27.2107621 -19.87327191 24.09497099 -18 21 C-17.071875 19.3603125 -17.071875 19.3603125 -16.125 17.6875 C-15.7846875 17.09839844 -15.444375 16.50929688 -15.09375 15.90234375 C-14.32784538 14.57021678 -13.57921107 13.22807976 -12.84375 11.87890625 C-10.15814831 7.18771099 -8.13621343 5.12147946 -3 3 C-1.18445841 1.43897509 -1.18445841 1.43897509 0 0 Z M-221 253 C-221 253.99 -221 254.98 -221 256 C-221.99 256.33 -222.98 256.66 -224 257 C-220.92000054 260.67230705 -218.7517398 261.56802365 -214 262 C-213.855625 261.195625 -213.71125 260.39125 -213.5625 259.5625 C-213 257 -213 257 -212 256 C-209.7226499 253.18490007 -209.7226499 253.18490007 -210 250 C-214.44870215 249.60746746 -217.14243493 250.84694043 -221 253 Z M-231 260 C-231 260.66 -231 261.32 -231 262 C-230.34 262 -229.68 262 -229 262 C-229 261.34 -229 260.68 -229 260 C-229.66 260 -230.32 260 -231 260 Z M-227 260 C-227 260.66 -227 261.32 -227 262 C-226.34 261.67 -225.68 261.34 -225 261 C-225.66 260.67 -226.32 260.34 -227 260 Z M-211 263 C-210 265 -210 265 -210 265 Z M-202 268 C-201.01 268.99 -200.02 269.98 -199 271 C-198.34 270.67 -197.68 270.34 -197 270 C-197.66 269.34 -198.32 268.68 -199 268 C-199.99 268 -200.98 268 -202 268 Z M-33 348 C-29.29973694 353.32837881 -25.14523886 355.95158705 -19 358 C-19 357.01 -19 356.02 -19 355 C-19.99 355 -20.98 355 -22 355 C-22 354.34 -22 353.68 -22 353 C-27.201526 349.76340806 -27.201526 349.76340806 -33 348 Z M-18 356 C-18.33 356.99 -18.66 357.98 -19 359 C-17.26212435 361.73486777 -17.26212435 361.73486777 -15 364 C-14.34 364 -13.68 364 -13 364 C-13 364.66 -13 365.32 -13 366 C-12.34 366 -11.68 366 -11 366 C-12.3937282 361.56541027 -14.60582235 359.12621626 -18 356 Z " fill="#0A0302" transform="translate(281,16)"/>
<path d="M0 0 C0.66 0.33 1.32 0.66 2 1 C2 1.66 2 2.32 2 3 C1.34 3 0.68 3 0 3 C-0.66 4.32 -1.32 5.64 -2 7 C-2.66 7 -3.32 7 -4 7 C-5.37310707 8.29233607 -6.71034824 9.62437146 -8 11 C-7.91433603 8.087425 -7.42089045 6.43201976 -5.375 4.33203125 C-3.61608625 2.83908228 -1.83686981 1.39563738 0 0 Z " fill="#130B0B" transform="translate(58,238)"/>
<path d="M0 0 C2.64 0 5.28 0 8 0 C6.3125 2.0625 6.3125 2.0625 4 4 C1.25 3.75 1.25 3.75 -1 3 C-0.67 2.01 -0.34 1.02 0 0 Z " fill="#0C0908" transform="translate(422,394)"/>
<path d="M0 0 C0.66 0.33 1.32 0.66 2 1 C1.01 1 0.02 1 -1 1 C-0.67 0.67 -0.34 0.34 0 0 Z " fill="#000000" transform="translate(83,205)"/>
<path d="M0 0 C0.33 0.66 0.66 1.32 1 2 C0.34 1.67 -0.32 1.34 -1 1 C-0.67 0.67 -0.34 0.34 0 0 Z " fill="#000000" transform="translate(409,396)"/>
<path d="M0 0 C0.66 0 1.32 0 2 0 C1.67 0.66 1.34 1.32 1 2 C0.67 1.34 0.34 0.68 0 0 Z " fill="#000000" transform="translate(66,285)"/>
<path d="M0 0 C3 1 3 1 3 1 Z " fill="#000000" transform="translate(63,268)"/>
<path d="" fill="#000000" transform="translate(0,0)"/>
<path d="M0 0 C2 1 2 1 2 1 Z " fill="#000000" transform="translate(415,407)"/>
<path d="M0 0 C2 1 2 1 2 1 Z " fill="#000000" transform="translate(435,396)"/>
<path d="M0 0 C2 1 2 1 2 1 Z " fill="#000000" transform="translate(312,358)"/>
<path d="" fill="#000000" transform="translate(0,0)"/>
<path d="M0 0 C2 1 2 1 2 1 Z " fill="#000000" transform="translate(86,288)"/>
<path d="M0 0 C2 1 2 1 2 1 Z " fill="#000000" transform="translate(45,281)"/>
<path d="" fill="#000000" transform="translate(0,0)"/>
<path d="M0 0 C2 1 2 1 2 1 Z " fill="#000000" transform="translate(68,267)"/>
<path d="" fill="#000000" transform="translate(0,0)"/>
<path d="" fill="#000000" transform="translate(0,0)"/>
<path d="" fill="#000000" transform="translate(0,0)"/>
<path d="M0 0 C2 1 2 1 2 1 Z " fill="#000000" transform="translate(187,141)"/>
<path d="M0 0 C2 1 2 1 2 1 Z " fill="#000000" transform="translate(321,89)"/>
<path d="" fill="#000000" transform="translate(0,0)"/>
<path d="" fill="#000000" transform="translate(0,0)"/>
<path d="" fill="#000000" transform="translate(0,0)"/>
<path d="" fill="#000000" transform="translate(0,0)"/>
<path d="" fill="#000000" transform="translate(0,0)"/>
<path d="" fill="#000000" transform="translate(0,0)"/>
<path d="" fill="#000000" transform="translate(0,0)"/>
<path d="" fill="#000000" transform="translate(0,0)"/>
<path d="" fill="#000000" transform="translate(0,0)"/>
<path d="" fill="#000000" transform="translate(0,0)"/>
<path d="" fill="#000000" transform="translate(0,0)"/>
<path d="" fill="#000000" transform="translate(0,0)"/>
<path d="" fill="#000000" transform="translate(0,0)"/>
<path d="" fill="#000000" transform="translate(0,0)"/>
<path d="" fill="#000000" transform="translate(0,0)"/>
<path d="" fill="#000000" transform="translate(0,0)"/>
<path d="" fill="#000000" transform="translate(0,0)"/>
<path d="" fill="#000000" transform="translate(0,0)"/>
<path d="" fill="#000000" transform="translate(0,0)"/>
<path d="" fill="#000000" transform="translate(0,0)"/>
<path d="" fill="#000000" transform="translate(0,0)"/>
<path d="" fill="#000000" transform="translate(0,0)"/>
<path d="" fill="#000000" transform="translate(0,0)"/>
<path d="" fill="#000000" transform="translate(0,0)"/>
<path d="" fill="#000000" transform="translate(0,0)"/>
<path d="" fill="#000000" transform="translate(0,0)"/>
<path d="" fill="#000000" transform="translate(0,0)"/>
<path d="" fill="#000000" transform="translate(0,0)"/>
<path d="" fill="#000000" transform="translate(0,0)"/>
<path d="" fill="#000000" transform="translate(0,0)"/>
<path d="" fill="#000000" transform="translate(0,0)"/>
<path d="" fill="#000000" transform="translate(0,0)"/>
<path d="" fill="#000000" transform="translate(0,0)"/>
<path d="" fill="#000000" transform="translate(0,0)"/>
<path d="" fill="#000000" transform="translate(0,0)"/>
<path d="" fill="#000000" transform="translate(0,0)"/>
<path d="" fill="#000000" transform="translate(0,0)"/>
<path d="" fill="#000000" transform="translate(0,0)"/>
<path d="" fill="#000000" transform="translate(0,0)"/>
<path d="" fill="#000000" transform="translate(0,0)"/>
<path d="" fill="#000000" transform="translate(0,0)"/>
<path d="" fill="#000000" transform="translate(0,0)"/>
<path d="" fill="#000000" transform="translate(0,0)"/>
<path d="" fill="#000000" transform="translate(0,0)"/>
<path d="" fill="#000000" transform="translate(0,0)"/>
<path d="" fill="#000000" transform="translate(0,0)"/>
<path d="" fill="#000000" transform="translate(0,0)"/>
<path d="" fill="#000000" transform="translate(0,0)"/>
<path d="" fill="#000000" transform="translate(0,0)"/>
<path d="" fill="#000000" transform="translate(0,0)"/>
<path d="" fill="#000000" transform="translate(0,0)"/>
<path d="" fill="#000000" transform="translate(0,0)"/>
<path d="" fill="#000000" transform="translate(0,0)"/>
</svg>
